<?xml version="1.0" encoding="UTF-8"?>
<!DOCTYPE svg PUBLIC "-//W3C//DTD SVG 1.1//EN" "http://www.w3.org/Graphics/SVG/1.1/DTD/svg11.dtd">
<svg xmlns="http://www.w3.org/2000/svg" version="1.1" width="192px" height="192px" style="shape-rendering:geometricPrecision; text-rendering:geometricPrecision; image-rendering:optimizeQuality; fill-rule:evenodd; clip-rule:evenodd" xmlns:xlink="http://www.w3.org/1999/xlink">
<g><path style="opacity:0.986" fill="#fefefe" d="M 69.5,-0.5 C 86.8333,-0.5 104.167,-0.5 121.5,-0.5C 131.876,0.809733 142.209,2.9764 152.5,6C 168.667,11.5 179.5,22.3333 185,38.5C 188.024,48.7908 190.19,59.1242 191.5,69.5C 191.5,86.8333 191.5,104.167 191.5,121.5C 190.19,131.876 188.024,142.209 185,152.5C 179.5,168.667 168.667,179.5 152.5,185C 142.209,188.024 131.876,190.19 121.5,191.5C 104.167,191.5 86.8333,191.5 69.5,191.5C 59.1242,190.19 48.7908,188.024 38.5,185C 22.3333,179.5 11.5,168.667 6,152.5C 2.9764,142.209 0.809733,131.876 -0.5,121.5C -0.5,104.167 -0.5,86.8333 -0.5,69.5C 0.809733,59.1242 2.9764,48.7908 6,38.5C 11.5,22.3333 22.3333,11.5 38.5,6C 48.7908,2.9764 59.1242,0.809733 69.5,-0.5 Z"/></g>
<g><path style="opacity:1" fill="#f7413c" d="M 45.5,71.5 C 45.5,89.1667 45.5,106.833 45.5,124.5C 44.5,124.5 43.5,124.5 42.5,124.5C 39.8878,123.723 38.0545,122.056 37,119.5C 36.3333,107.833 36.3333,96.1667 37,84.5C 37.6152,82.8839 38.6152,81.5505 40,80.5C 40.6667,69.8333 40.6667,59.1667 40,48.5C 34.8144,43.2425 35.6478,39.2425 42.5,36.5C 50.1794,38.7569 51.3461,42.7569 46,48.5C 45.5003,56.1594 45.3336,63.8261 45.5,71.5 Z"/></g>
<g><path style="opacity:1" fill="#f7403c" d="M 145.5,124.5 C 145.5,106.833 145.5,89.1667 145.5,71.5C 145.831,63.8045 145.497,56.1378 144.5,48.5C 139.897,43.1932 140.897,39.1932 147.5,36.5C 154.983,38.6271 156.316,42.6271 151.5,48.5C 150.334,59.1511 150.168,69.8177 151,80.5C 152.385,81.5505 153.385,82.8839 154,84.5C 154.667,95.8333 154.667,107.167 154,118.5C 152.395,122.276 149.562,124.276 145.5,124.5 Z"/></g>
<g><path style="opacity:1" fill="#ffb236" d="M 112.5,53.5 C 101.167,53.5 89.8333,53.5 78.5,53.5C 73.2618,49.4254 73.2618,45.2588 78.5,41C 89.8333,40.3333 101.167,40.3333 112.5,41C 117.738,45.2588 117.738,49.4254 112.5,53.5 Z"/></g>
<g><path style="opacity:1" fill="#cbc2d4" d="M 78.5,53.5 C 89.8333,53.5 101.167,53.5 112.5,53.5C 128.107,51.4636 139.107,57.4636 145.5,71.5C 145.5,89.1667 145.5,106.833 145.5,124.5C 146.551,141.265 138.884,151.099 122.5,154C 103.5,154.667 84.5,154.667 65.5,154C 51.5729,149.659 44.9063,140.159 45.5,125.5C 44.209,125.737 43.209,125.404 42.5,124.5C 43.5,124.5 44.5,124.5 45.5,124.5C 45.5,106.833 45.5,89.1667 45.5,71.5C 51.8733,57.4727 62.8733,51.4727 78.5,53.5 Z"/></g>
<g><path style="opacity:1" fill="#212222" d="M 61.5,70.5 C 84.8858,70.041 108.219,70.541 131.5,72C 141.74,78.1717 144.24,86.6717 139,97.5C 136.408,100.762 133.241,103.262 129.5,105C 106.833,105.667 84.1667,105.667 61.5,105C 49.6042,98.5752 46.7709,89.4085 53,77.5C 55.4412,74.5464 58.2745,72.2131 61.5,70.5 Z"/></g>
<g><path style="opacity:1" fill="#01a2e7" d="M 69.5,78.5 C 72.3245,78.0807 74.4912,79.0807 76,81.5C 76.6667,86.5 76.6667,91.5 76,96.5C 73.4719,100.085 70.4719,100.418 67,97.5C 66.3333,91.8333 66.3333,86.1667 67,80.5C 67.9947,79.9341 68.828,79.2674 69.5,78.5 Z"/></g>
<g><path style="opacity:1" fill="#01a2e7" d="M 117.5,78.5 C 119.936,78.317 122.103,78.9837 124,80.5C 124.667,86.1667 124.667,91.8333 124,97.5C 120.528,100.418 117.528,100.085 115,96.5C 114.333,91.5 114.333,86.5 115,81.5C 116.045,80.6266 116.878,79.6266 117.5,78.5 Z"/></g>
<g><path style="opacity:1" fill="#262526" d="M 82.5,124.5 C 90.84,124.334 99.1733,124.5 107.5,125C 114.034,129.095 114.034,133.095 107.5,137C 99.1667,137.667 90.8333,137.667 82.5,137C 77.232,132.837 77.232,128.671 82.5,124.5 Z"/></g>
</svg>
